<svg width="48" height="48" viewBox="0 0 48 48" fill="none" xmlns="http://www.w3.org/2000/svg">
<path d="M38.9995 15L36.0195 17.98L30.0195 11.98L32.9995 9.00001C33.8395 8.16001 34.9195 7.76001 35.9995 7.76001C37.0795 7.76001 38.1595 8.16001 38.9995 9.00001C40.6595 10.66 40.6595 13.34 38.9995 15Z" fill="white"/>
<path d="M34.6199 19.4L12.9999 41C11.3399 42.66 8.65988 42.66 6.99988 41C5.33988 39.34 5.33988 36.66 6.99988 35L28.6199 13.4L34.6199 19.4Z" fill="white"/>
<path d="M19.9 7L20.72 4.22C20.8 3.96 20.72 3.68 20.54 3.48C20.36 3.28 20.04 3.2 19.78 3.28L17 4.1L14.22 3.28C13.96 3.2 13.68 3.28 13.48 3.46C13.28 3.66 13.22 3.94 13.3 4.2L14.1 7L13.28 9.78C13.2 10.04 13.28 10.32 13.46 10.52C13.66 10.72 13.94 10.78 14.2 10.7L17 9.9L19.78 10.72C19.86 10.74 19.92 10.76 20 10.76C20.2 10.76 20.38 10.68 20.54 10.54C20.74 10.34 20.8 10.06 20.72 9.8L19.9 7Z" fill="white"/>
<path d="M11.9 19L12.72 16.22C12.8 15.96 12.72 15.68 12.54 15.48C12.34 15.28 12.06 15.22 11.8 15.3L9.00003 16.1L6.22003 15.28C5.96003 15.2 5.68003 15.28 5.48003 15.46C5.28003 15.66 5.22003 15.94 5.30003 16.2L6.10003 19L5.28003 21.78C5.20003 22.04 5.28003 22.32 5.46003 22.52C5.66003 22.72 5.94003 22.78 6.20003 22.7L8.98003 21.88L11.76 22.7C11.82 22.72 11.9 22.72 11.98 22.72C12.18 22.72 12.36 22.64 12.52 22.5C12.72 22.3 12.78 22.02 12.7 21.76L11.9 19Z" fill="white"/>
<path d="M41.9004 29L42.7204 26.22C42.8004 25.96 42.7204 25.68 42.5404 25.48C42.3404 25.28 42.0604 25.22 41.8004 25.3L39.0204 26.12L36.2404 25.3C35.9804 25.22 35.7004 25.3 35.5004 25.48C35.3004 25.68 35.2404 25.96 35.3204 26.22L36.1404 29L35.3204 31.78C35.2404 32.04 35.3204 32.32 35.5004 32.52C35.7004 32.72 35.9804 32.78 36.2404 32.7L39.0204 31.88L41.8004 32.7C41.8604 32.72 41.9404 32.72 42.0204 32.72C42.2204 32.72 42.4004 32.64 42.5604 32.5C42.7604 32.3 42.8204 32.02 42.7404 31.76L41.9004 29Z" fill="white"/>
</svg>
