<svg width="48" height="48" viewBox="0 0 48 48" fill="none" xmlns="http://www.w3.org/2000/svg">
<g opacity="0.8">
<path d="M42.5005 36.94L39.2005 37.72C38.4605 37.9 37.8805 38.46 37.7205 39.2L37.0205 42.14C36.6405 43.74 34.6005 44.24 33.5405 42.98L27.5605 36.1C27.0805 35.54 27.3405 34.66 28.0605 34.48C31.6005 33.62 34.7805 31.64 37.1205 28.82C37.5005 28.36 38.1805 28.3 38.6005 28.72L43.0405 33.16C44.5605 34.68 44.0205 36.58 42.5005 36.94Z" fill="white"/>
<path d="M5.40033 36.94L8.70033 37.72C9.44033 37.9 10.0203 38.46 10.1803 39.2L10.8803 42.14C11.2603 43.74 13.3003 44.24 14.3603 42.98L20.3403 36.1C20.8203 35.54 20.5603 34.66 19.8403 34.48C16.3003 33.62 13.1203 31.64 10.7803 28.82C10.4003 28.36 9.72033 28.3 9.30033 28.72L4.86033 33.16C3.34033 34.68 3.88033 36.58 5.40033 36.94Z" fill="white"/>
<path d="M24 4C16.26 4 10 10.26 10 18C10 20.9 10.86 23.56 12.34 25.78C14.5 28.98 17.92 31.24 21.9 31.82C22.58 31.94 23.28 32 24 32C24.72 32 25.42 31.94 26.1 31.82C30.08 31.24 33.5 28.98 35.66 25.78C37.14 23.56 38 20.9 38 18C38 10.26 31.74 4 24 4ZM30.12 17.56L28.46 19.22C28.18 19.5 28.02 20.04 28.12 20.44L28.6 22.5C28.98 24.12 28.12 24.76 26.68 23.9L24.68 22.72C24.32 22.5 23.72 22.5 23.36 22.72L21.36 23.9C19.92 24.74 19.06 24.12 19.44 22.5L19.92 20.44C20 20.06 19.86 19.5 19.58 19.22L17.88 17.56C16.9 16.58 17.22 15.6 18.58 15.38L20.72 15.02C21.08 14.96 21.5 14.64 21.66 14.32L22.84 11.96C23.48 10.68 24.52 10.68 25.16 11.96L26.34 14.32C26.5 14.64 26.92 14.96 27.3 15.02L29.44 15.38C30.78 15.6 31.1 16.58 30.12 17.56Z" fill="white"/>
</g>
</svg>
