<svg width="48" height="48" viewBox="0 0 48 48" fill="none" xmlns="http://www.w3.org/2000/svg">
<g opacity="0.8">
<path d="M39.0198 11.7L27.1398 4.84C25.1998 3.72 22.7998 3.72 20.8398 4.84L8.97984 11.7C7.03984 12.82 5.83984 14.9 5.83984 17.16V30.84C5.83984 33.08 7.03984 35.16 8.97984 36.3L20.8598 43.16C22.7998 44.28 25.1998 44.28 27.1598 43.16L39.0398 36.3C40.9798 35.18 42.1798 33.1 42.1798 30.84V17.16C42.1598 14.9 40.9598 12.84 39.0198 11.7ZM23.9998 14.68C26.5798 14.68 28.6598 16.76 28.6598 19.34C28.6598 21.92 26.5798 24 23.9998 24C21.4198 24 19.3398 21.92 19.3398 19.34C19.3398 16.78 21.4198 14.68 23.9998 14.68ZM29.3598 33.32H18.6398C17.0198 33.32 16.0798 31.52 16.9798 30.18C18.3398 28.16 20.9798 26.8 23.9998 26.8C27.0198 26.8 29.6598 28.16 31.0198 30.18C31.9198 31.5 30.9598 33.32 29.3598 33.32Z" fill="white"/>
</g>
</svg>
